<svg xmlns="http://www.w3.org/2000/svg" viewBox="0 0 1200 630" width="1200" height="630">
  <defs>
    <linearGradient id="bg" x1="0" y1="0" x2="1" y2="1">
      <stop offset="0" stop-color="#0b0f16"/>
      <stop offset="1" stop-color="#0c111a"/>
    </linearGradient>
    <radialGradient id="glow" cx="50%" cy="35%" r="60%">
      <stop offset="0" stop-color="#22c55e22"/>
      <stop offset="1" stop-color="#22c55e00"/>
    </radialGradient>
    <clipPath id="frame"><rect x="0" y="0" width="1200" height="630" rx="24"/></clipPath>
  </defs>
  <rect width="1200" height="630" fill="url(#bg)"/>
  <g clip-path="url(#frame)">
    <rect width="1200" height="630" fill="url(#glow)"/>
    <!-- grid -->
    <g opacity="0.15" stroke="#94a3b8" stroke-width="1">
      <g id="v">
        <path d="M0 0 v630"/>
      </g>
      <g id="h">
        <path d="M0 0 h1200"/>
      </g>
      <g>
        <use href="#v" x="60"/><use href="#v" x="120"/><use href="#v" x="180"/><use href="#v" x="240"/>
        <use href="#v" x="300"/><use href="#v" x="360"/><use href="#v" x="420"/><use href="#v" x="480"/>
        <use href="#v" x="540"/><use href="#v" x="600"/><use href="#v" x="660"/><use href="#v" x="720"/>
        <use href="#v" x="780"/><use href="#v" x="840"/><use href="#v" x="900"/><use href="#v" x="960"/>
        <use href="#v" x="1020"/><use href="#v" x="1080"/><use href="#v" x="1140"/>
      </g>
      <g>
        <use href="#h" y="60"/><use href="#h" y="120"/><use href="#h" y="180"/><use href="#h" y="240"/>
        <use href="#h" y="300"/><use href="#h" y="360"/><use href="#h" y="420"/><use href="#h" y="480"/>
        <use href="#h" y="540"/><use href="#h" y="600"/>
      </g>
    </g>
    <!-- hooded silhouette -->
    <g transform="translate(600,340)">
      <path d="M-210 120 h420 a30 30 0 0 1 30 30 v40 h-480 v-40 a30 30 0 0 1 30-30z" fill="#0f1520" stroke="#1f2a3a"/>
      <path d="M0-180 c140 0 210 120 210 220 v80 h-420 v-80 c0-100 70-220 210-220z" fill="#0f1520" stroke="#1f2a3a" stroke-width="3"/>
      <circle cx="0" cy="-40" r="78" fill="#0b1220" stroke="#1f2a3a"/>
      <rect x="-90" y="-20" width="180" height="36" rx="18" fill="#07131a" stroke="#123"/>
      <rect x="-82" y="-12" width="70" height="20" rx="10" fill="#22c55e" opacity="0.85"/>
      <rect x="12" y="-12" width="70" height="20" rx="10" fill="#22c55e" opacity="0.85"/>
      <path d="M-120 -60 l-60 -40 40 -40 74 32" fill="none" stroke="#22c55e" stroke-width="3" opacity="0.6"/>
      <path d="M120 -60 l60 -40 -40 -40 -74 32" fill="none" stroke="#22c55e" stroke-width="3" opacity="0.6"/>
    </g>
    <!-- code rain -->
    <g font-family="ui-monospace,Consolas,monospace" font-size="14" fill="#22c55e" opacity="0.4">
      <text x="80" y="80">010101 • auth ok • tls • sig</text>
      <text x="80" y="110">alert: login from unknown device</text>
      <text x="900" y="560">hash: 9f86d081884c7d659a2feaa0</text>
    </g>
  </g>
</svg>
